<svg xmlns="http://www.w3.org/2000/svg" width="256" height="193" viewBox="0 0 256 193">
    <defs>
        <linearGradient id="a" x1="0%" y1="71.463%" y2="32.129%">
            <stop offset="0%" stop-color="#4395C0"/>
            <stop offset="100%" stop-color="#205C8C"/>
        </linearGradient>
    </defs>
    <g fill="none" fill-rule="evenodd">
        <path fill="url(#a)" d="M1.487 114.004c-6.534 22.814 7.93 44.202 54.082 57.163 60.365 16.951 142.747 8.46 179.284-14.739 32.434-20.594 30.731-99.124-27.451-131.556-45.61-25.423-82.21-9.83-127 26.269C48.35 76.974 9.19 87.109 1.488 114.004" opacity=".05" transform="matrix(-1 0 0 1 256 0)"/>
        <path fill="#C6DFEC" d="M196.62 26.404h2.497v-2.499h-2.498z"/>
        <path fill="#5D8BB2" d="M196.842 26.181h2.053v-2.053h-2.053v2.053zm-.445.445h2.942v-2.943h-2.942v2.943z"/>
        <path fill="#C6DFEC" d="M196.62 30.812h2.497v-2.498h-2.498z"/>
        <path fill="#5D8BB2" d="M196.842 30.59h2.053v-2.054h-2.053v2.054zm-.445.445h2.942v-2.943h-2.942v2.943z"/>
        <path fill="#C6DFEC" d="M196.62 35.22h2.497v-2.497h-2.498z"/>
        <path fill="#5D8BB2" d="M196.842 34.998h2.053v-2.053h-2.053v2.053zm-.445.445h2.942V32.5h-2.942v2.943zM198.112 26.007l-1.21-1.21.315-.314.847.847 2.051-2.733.356.266z"/>
        <path fill="#E2EFF4" d="M201.175 25.53h8.67v-.445h-8.67zM201.175 29.938h8.67v-.444h-8.67zM201.175 34.347h8.67v-.445h-8.67z"/>
        <path fill="#5D8BB2" d="M143.148 38.964c-.945 0-2.209-.003-3.905-.007h-.4v-.4c0-1.04-.844-2.197-1.738-3.422-1.014-1.39-2.063-2.828-2.063-4.36 0-4.113 3.346-7.46 7.459-7.46 4.113 0 7.459 3.347 7.459 7.46 0 1.522-1.037 2.933-2.04 4.297-.905 1.232-1.76 2.395-1.76 3.484v.166l-.119.118c-.098.099-.124.124-2.893.124M145.366 40.022h-5.791a.259.259 0 1 1 0-.518h5.791a.26.26 0 1 1 0 .518M145.366 41.47h-5.791a.259.259 0 1 1 0-.519h5.791a.26.26 0 1 1 0 .519M140.42 42.402h4.026s-.452 1.764-1.99 1.764c-1.584 0-2.036-1.764-2.036-1.764"/>
        <path fill="#E2EFF4" d="M145.34 32.298c-.227.274-.605.306-1.087.345-.074.006-.158.01-.25.013.13-.456.315-.876.658-1.116a.813.813 0 0 1 .449-.141c.14 0 .268.043.348.144.154.197.061.538-.118.755m-4.882.342c-.438-.036-.818-.068-1.045-.342-.179-.217-.272-.558-.117-.755.08-.1.209-.144.348-.144.154 0 .32.053.448.141.344.24.53.66.659 1.115a5.874 5.874 0 0 1-.293-.015m5.428-1.434c-.372-.471-1.087-.426-1.536-.113-.519.362-.755.954-.913 1.566a65.12 65.12 0 0 1-.518-.008l-.367-.006-.014-.002h-.323l-.015.003-.294.004-.59.01c-.157-.613-.393-1.204-.912-1.567-.45-.313-1.164-.358-1.536.113-.341.433-.195 1.051.125 1.439.374.452.93.498 1.463.541.119.01.266.016.429.018.336 1.513.503 3.065.497 4.616 0 .15.121.273.272.273h.001c.15 0 .272-.12.272-.27a21.497 21.497 0 0 0-.484-4.62l.473-.008.467-.006a59.97 59.97 0 0 1 .928.014 21.453 21.453 0 0 0-.485 4.62c0 .15.123.27.273.27h.001c.15 0 .272-.123.272-.273-.007-1.55.16-3.102.497-4.616.171-.003.332-.01.471-.021.491-.04 1.047-.086 1.42-.538.32-.387.467-1.005.126-1.439"/>
        <path fill="#5D8BB2" d="M180.438 160.235c0 8.566-23.455 15.51-52.39 15.51-28.933 0-52.388-6.944-52.388-15.51 0-8.566 23.455-15.51 52.389-15.51 28.934 0 52.39 6.944 52.39 15.51" opacity=".5"/>
        <path fill="#B9D8E8" d="M117.495 137.442s.418 6.535-.987 11.04c-2.31 7.405-8.78 8.183-8.78 12.116 0 .074 40.642.09 40.642 0 0-3.754-6.129-4.947-8.257-11.847-1.595-5.17-.673-11.309-.673-11.309h-21.945z"/>
        <path fill="#FFF" d="M107.735 162.326h40.635v-1.795h-40.635z"/>
        <path fill="#E2EFF4" d="M199.768 136.778a4.398 4.398 0 0 1-4.385 4.385H60.91a4.398 4.398 0 0 1-4.385-4.385V47.539a4.398 4.398 0 0 1 4.385-4.385h134.474a4.398 4.398 0 0 1 4.385 4.385v89.239z"/>
        <path fill="#3D88B9" d="M62.62 126.133h130.858V49.665H62.62z"/>
        <path fill="#5D8BB2" d="M131.28 133.673a3.231 3.231 0 1 1-6.462 0 3.231 3.231 0 0 1 6.462 0"/>
        <path fill="#FF6359" d="M190.124 126.211H66.168v-68.41a3.654 3.654 0 0 1 3.654-3.654h116.575a3.727 3.727 0 0 1 3.727 3.728v68.336z"/>
        <g opacity=".2" style="mix-blend-mode:luminosity">
            <path fill="#5F6260" d="M158.26 98.085c-2.773 0-5.02 2.265-5.02 5.061 0 2.794 2.247 5.061 5.02 5.061 2.772 0 5.02-2.267 5.02-5.06 0-2.797-2.248-5.062-5.02-5.062"/>
            <path fill="#5F6260" d="M158.26 98.085c-2.773 0-5.02 2.265-5.02 5.061 0 2.794 2.247 5.061 5.02 5.061 2.772 0 5.02-2.267 5.02-5.06 0-2.797-2.248-5.062-5.02-5.062"/>
            <path fill="#FAFAFA" d="M169.188 89.363c-1.55-.893-14.126-3.72-14.126-3.72s-12.303-10.617-22.64-11.212c-9.945-.574-22.647.207-27.077.999l.082-.071-5.653.736s-.39.492-.244.983c.146.491 1.024 1.228.049 3.292l.084-.073c-1.258 2.052-2.25 4.286-2.97 5.694-.304.59-4.135 3.62-5.612 11.659-1.028 5.597 3.322 8.608 3.322 8.608l79.977.024 1.378-5.607s-2.288-7.07-2.731-7.739c-.444-.67-2.289-2.68-3.84-3.573"/>
            <path fill="#92C1DB" d="M91.627 102.808c1.023 2.253 2.725 3.432 2.725 3.432l79.977.023.832-3.388H92.193c-.204 0-.391-.024-.566-.067"/>
            <path fill="#3D89BA" d="M169.873 102.433a1.74 1.74 0 0 0 1.734 1.748h3.212l.886-3.498h-4.098c-.958 0-1.734.784-1.734 1.75"/>
            <path fill="#92C1DB" d="M172.469 92.172c-1.522-1.703-3.241-2.116-3.241-2.116-2.51.446 1.92 4.166 2.805 4.39.886.222 1.422-.253 1.422-.253l-.185-.58a3.934 3.934 0 0 0-.801-1.441"/>
            <path fill="#205C8C" d="M102.244 95.96c-3.79 0-6.869 3.1-6.869 6.924 0 3.828 3.078 6.929 6.87 6.929 3.797 0 6.872-3.1 6.872-6.929 0-3.823-3.075-6.924-6.873-6.924"/>
            <path fill="#3D89BA" d="M102.219 98.085c-2.743 0-4.97 2.244-4.97 5.01 0 2.767 2.227 5.01 4.97 5.01 2.747 0 4.972-2.243 4.972-5.01 0-2.766-2.225-5.01-4.972-5.01"/>
            <path fill="#5398C3" d="M106.993 102.296l-3.203.534c.02.099.034.198.034.302 0 .073-.013.151-.023.222l3.173.534a4.91 4.91 0 0 1-.839 2.007l-2.583-1.859c-.099.15-.227.277-.369.388l1.841 2.6a4.888 4.888 0 0 1-1.99.862l-.522-3.153a1.37 1.37 0 0 1-.544.012l-.525 3.167a4.834 4.834 0 0 1-2.048-.805l1.87-2.643a1.584 1.584 0 0 1-.39-.392l-2.643 1.903a4.921 4.921 0 0 1-.893-2.059l3.26-.548c-.008-.08-.021-.156-.021-.236 0-.106.013-.215.032-.314l-3.29-.55a4.94 4.94 0 0 1 .852-2.105l2.748 1.975c.106-.142.234-.27.381-.366l-1.963-2.775a4.814 4.814 0 0 1 2.085-.843l.557 3.365c.073-.012.145-.024.218-.024.103 0 .201.012.3.033l.555-3.348a4.86 4.86 0 0 1 2.028.9l-1.93 2.73c.135.101.26.224.36.366l2.684-1.932c.41.602.686 1.299.798 2.052zm-4.84-4.683c-2.962 0-5.372 2.43-5.372 5.415 0 2.992 2.41 5.422 5.371 5.422 2.965 0 5.377-2.43 5.377-5.422 0-2.985-2.412-5.415-5.377-5.415z"/>
            <path fill="#6DA9CB" d="M102.269 100.92c-1.09 0-1.974.89-1.974 1.99 0 1.098.884 1.988 1.974 1.988 1.09 0 1.973-.89 1.973-1.988 0-1.1-.883-1.99-1.973-1.99"/>
            <path fill="#FFF" d="M99.108 85.57c-1.429-.06-1.859 2.184-1.859 2.184l59.51 2.21 3.244-.79c-.66-.79-6.128-1.3-6.128-1.3L99.108 85.57"/>
            <path fill="#92C1DB" d="M148.76 91.631c-.011.427-.018.89-.026 1.374-.06 3.635-.15 9.126-2.017 9.976-.6.271-7.249.286-29.892-.149-.674 0-1.21-.571-1.171-1.25l.923-16.226 30.95 1.516c.268.277 1.315 1.568 1.233 4.759m-.933-5.283l-.075-.057-31.7-1.667-.057.666-.939 16.444c-.05.878.629 1.62 1.5 1.644 6.617.17 15.171.616 19.17.616 6.768 0 10.533-.158 11.232-.477 2.205-1.004 2.291-6.27 2.36-10.502.008-.482.016-.942.027-1.368.1-3.972-1.452-5.245-1.518-5.299"/>
            <path fill="#205C8C" d="M158.352 96.078c-3.792 0-6.87 3.1-6.87 6.924 0 3.828 3.078 6.93 6.87 6.93 3.797 0 6.873-3.102 6.873-6.93 0-3.823-3.076-6.924-6.873-6.924"/>
            <path fill="#3D89BA" d="M158.267 97.613c-2.904 0-5.262 2.376-5.262 5.304 0 2.93 2.358 5.307 5.262 5.307 2.908 0 5.264-2.376 5.264-5.307 0-2.928-2.356-5.304-5.264-5.304"/>
            <path fill="#5398C3" d="M163.217 102.296l-3.203.534c.02.099.035.198.035.302 0 .073-.014.151-.024.222l3.173.534a4.914 4.914 0 0 1-.838 2.007l-2.583-1.859c-.1.15-.228.277-.37.388l1.841 2.6a4.888 4.888 0 0 1-1.99.862l-.522-3.153a1.37 1.37 0 0 1-.543.012l-.526 3.167a4.834 4.834 0 0 1-2.048-.805l1.87-2.643a1.588 1.588 0 0 1-.39-.392l-2.643 1.903a4.924 4.924 0 0 1-.893-2.059l3.26-.548c-.007-.08-.02-.156-.02-.236 0-.106.013-.215.032-.314l-3.29-.55a4.94 4.94 0 0 1 .852-2.105l2.748 1.975c.105-.142.233-.27.38-.366l-1.962-2.775a4.812 4.812 0 0 1 2.084-.843l.558 3.365c.072-.012.145-.024.217-.024.104 0 .201.012.3.033l.556-3.348c.75.141 1.438.455 2.027.9l-1.93 2.73c.136.101.26.224.36.366l2.684-1.932c.41.602.687 1.299.798 2.052zm-4.84-4.683c-2.962 0-5.372 2.43-5.372 5.415 0 2.992 2.41 5.422 5.372 5.422 2.964 0 5.377-2.43 5.377-5.422 0-2.985-2.413-5.415-5.377-5.415z"/>
            <path fill="#6DA9CB" d="M158.259 100.92c-1.09 0-1.974.89-1.974 1.99 0 1.098.884 1.988 1.974 1.988 1.09 0 1.973-.89 1.973-1.988 0-1.1-.883-1.99-1.973-1.99"/>
            <path fill="#92C1DB" d="M94.8 89.82h-1.14l-.584 1.067-.512 1.197 2.257-.042c.41-.007.782-.243.965-.614.367-.74-.166-1.608-.986-1.608"/>
            <path fill="#ED6C0D" d="M93.863 92.654l-1.456.026-.415 1.055-.365 1.186 2.256-.043c.41-.01.783-.245.966-.616.367-.74-.166-1.608-.986-1.608"/>
            <path fill="#92C1DB" d="M123.845 88.777c-.008.214-.168.38-.363.38v.192l-.015-.192-4.435-.199a.347.347 0 0 1-.252-.127.412.412 0 0 1-.095-.284l.021-.564a.38.38 0 0 1 .376-.378l4.437.196a.353.353 0 0 1 .25.128c.066.08.1.179.097.284l-.021.564zm-.312-1.356l-4.465-.2c-.384 0-.697.328-.713.746l-.02.565a.818.818 0 0 0 .187.559c.045.051.102.087.157.123l-.091-.006c2.422 1.497 5.157.281 5.157.281h-.024a.769.769 0 0 0 .474-.694l.021-.567a.81.81 0 0 0-.188-.557.68.68 0 0 0-.495-.25z"/>
            <path fill="#E3F0F5" d="M107.484 76.771s-2.288.073-5.315 7.22l49.647 1.934s-10.299-8.113-14.359-9.08c-4.06-.967-13.51-2.084-29.973-.074"/>
            <path fill="#DAE8E6" d="M107.323 77.24c.031-.01.063-.022.094-.022-.031 0-.062.012-.094.023m.105-.034"/>
            <path fill="#3D89BA" d="M102.438 83.772c2.786-6.391 4.87-6.641 4.909-6.644 6.081-.744 11.72-1.12 16.759-1.12 7.07 0 11.249.745 13.11 1.189 3.33.793 11.09 6.6 13.51 8.454l-48.288-1.88zm34.914-7.154c-1.886-.45-6.115-1.204-13.246-1.204-5.062 0-10.725.378-16.804 1.122-.254.007-2.564.285-5.578 7.398a.3.3 0 0 0 .26.416l49.647 1.934h.012a.295.295 0 0 0 .277-.196.301.301 0 0 0-.096-.337c-.422-.333-10.396-8.162-14.472-9.133z"/>
            <path fill="#3D89BA" d="M146.446 85.772l4.872.075-4.503-3.348-.37 3.273M145.48 85.756l.467-2.086s-.542-.892-1.821-1.09c-1.28-.2-2.658-.1-2.806 1.09-.147 1.193.296 2.185.936 2.185.64 0 .885.198.885.198l1.083 2.182s2.904 1.24 2.658-.396l-1.403-2.083M117.394 75.874l-1.403 8.632 4.38.274-.172-9.13-2.805.224"/>
            <path fill="#82939C" d="M173.41 76.805l-.023-.038.023.038 1.192-.447.347.348-.347-.348-1.192.447"/>
            <path fill="#92C1DB" d="M91.627 102.808c1.023 2.253 2.725 3.432 2.725 3.432l79.977.023.832-3.388H92.193c-.204 0-.391-.024-.566-.067"/>
            <path fill="#3D89BA" d="M169.873 102.433a1.74 1.74 0 0 0 1.734 1.748h3.212l.886-3.498h-4.098c-.958 0-1.734.784-1.734 1.75"/>
            <path fill="#92C1DB" d="M172.469 92.172c-1.522-1.703-3.241-2.116-3.241-2.116-2.51.446 1.92 4.166 2.805 4.39.886.222 1.422-.253 1.422-.253l-.185-.58a3.934 3.934 0 0 0-.801-1.441"/>
            <path fill="#205C8C" d="M102.244 95.96c-3.79 0-6.869 3.1-6.869 6.924 0 3.828 3.078 6.929 6.87 6.929 3.797 0 6.872-3.1 6.872-6.929 0-3.823-3.075-6.924-6.873-6.924"/>
            <path fill="#3D89BA" d="M102.219 98.085c-2.743 0-4.97 2.244-4.97 5.01 0 2.767 2.227 5.01 4.97 5.01 2.747 0 4.972-2.243 4.972-5.01 0-2.766-2.225-5.01-4.972-5.01"/>
            <path fill="#5398C3" d="M106.993 102.296l-3.203.534c.02.099.034.198.034.302 0 .073-.013.151-.023.222l3.173.534a4.91 4.91 0 0 1-.839 2.007l-2.583-1.859c-.099.15-.227.277-.369.388l1.841 2.6a4.888 4.888 0 0 1-1.99.862l-.522-3.153a1.37 1.37 0 0 1-.544.012l-.525 3.167a4.834 4.834 0 0 1-2.048-.805l1.87-2.643a1.584 1.584 0 0 1-.39-.392l-2.643 1.903a4.921 4.921 0 0 1-.893-2.059l3.26-.548c-.008-.08-.021-.156-.021-.236 0-.106.013-.215.032-.314l-3.29-.55a4.94 4.94 0 0 1 .852-2.105l2.748 1.975c.106-.142.234-.27.381-.366l-1.963-2.775a4.814 4.814 0 0 1 2.085-.843l.557 3.365c.073-.012.145-.024.218-.024.103 0 .201.012.3.033l.555-3.348a4.86 4.86 0 0 1 2.028.9l-1.93 2.73c.135.101.26.224.36.366l2.684-1.932c.41.602.686 1.299.798 2.052zm-4.84-4.683c-2.962 0-5.372 2.43-5.372 5.415 0 2.992 2.41 5.422 5.371 5.422 2.965 0 5.377-2.43 5.377-5.422 0-2.985-2.412-5.415-5.377-5.415z"/>
            <path fill="#6DA9CB" d="M102.269 100.92c-1.09 0-1.974.89-1.974 1.99 0 1.098.884 1.988 1.974 1.988 1.09 0 1.973-.89 1.973-1.988 0-1.1-.883-1.99-1.973-1.99"/>
            <path fill="#E3F0F5" d="M99.108 85.57c-1.429-.06-1.859 2.184-1.859 2.184l59.51 2.21 3.244-.79c-.66-.79-6.128-1.3-6.128-1.3L99.108 85.57"/>
            <path fill="#92C1DB" d="M148.76 91.631c-.011.427-.018.89-.026 1.374-.06 3.635-.15 9.126-2.017 9.976-.6.271-7.249.286-29.892-.149-.674 0-1.21-.571-1.171-1.25l.923-16.226 30.95 1.516c.268.277 1.315 1.568 1.233 4.759m-.933-5.283l-.075-.057-31.7-1.667-.057.666-.939 16.444c-.05.878.629 1.62 1.5 1.644 6.617.17 15.171.616 19.17.616 6.768 0 10.533-.158 11.232-.477 2.205-1.004 2.291-6.27 2.36-10.502.008-.482.016-.942.027-1.368.1-3.972-1.452-5.245-1.518-5.299"/>
            <path fill="#205C8C" d="M158.352 96.078c-3.792 0-6.87 3.1-6.87 6.924 0 3.828 3.078 6.93 6.87 6.93 3.797 0 6.873-3.102 6.873-6.93 0-3.823-3.076-6.924-6.873-6.924"/>
            <path fill="#3D89BA" d="M158.267 97.613c-2.904 0-5.262 2.376-5.262 5.304 0 2.93 2.358 5.307 5.262 5.307 2.908 0 5.264-2.376 5.264-5.307 0-2.928-2.356-5.304-5.264-5.304"/>
            <path fill="#5398C3" d="M163.217 102.296l-3.203.534c.02.099.035.198.035.302 0 .073-.014.151-.024.222l3.173.534a4.914 4.914 0 0 1-.838 2.007l-2.583-1.859c-.1.15-.228.277-.37.388l1.841 2.6a4.888 4.888 0 0 1-1.99.862l-.522-3.153a1.37 1.37 0 0 1-.543.012l-.526 3.167a4.834 4.834 0 0 1-2.048-.805l1.87-2.643a1.588 1.588 0 0 1-.39-.392l-2.643 1.903a4.924 4.924 0 0 1-.893-2.059l3.26-.548c-.007-.08-.02-.156-.02-.236 0-.106.013-.215.032-.314l-3.29-.55a4.94 4.94 0 0 1 .852-2.105l2.748 1.975c.105-.142.233-.27.38-.366l-1.962-2.775a4.812 4.812 0 0 1 2.084-.843l.558 3.365c.072-.012.145-.024.217-.024.104 0 .201.012.3.033l.556-3.348c.75.141 1.438.455 2.027.9l-1.93 2.73c.136.101.26.224.36.366l2.684-1.932c.41.602.687 1.299.798 2.052zm-4.84-4.683c-2.962 0-5.372 2.43-5.372 5.415 0 2.992 2.41 5.422 5.372 5.422 2.964 0 5.377-2.43 5.377-5.422 0-2.985-2.413-5.415-5.377-5.415z"/>
            <path fill="#6DA9CB" d="M158.259 100.92c-1.09 0-1.974.89-1.974 1.99 0 1.098.884 1.988 1.974 1.988 1.09 0 1.973-.89 1.973-1.988 0-1.1-.883-1.99-1.973-1.99"/>
            <path fill="#92C1DB" d="M94.8 89.82h-1.14l-.584 1.067-.512 1.197 2.257-.042c.41-.007.782-.243.965-.614.367-.74-.166-1.608-.986-1.608"/>
            <path fill="#ED6C0D" d="M93.863 92.654l-1.456.026-.415 1.055-.365 1.186 2.256-.043c.41-.01.783-.245.966-.616.367-.74-.166-1.608-.986-1.608"/>
            <path fill="#92C1DB" d="M123.845 88.777c-.008.214-.168.38-.363.38v.192l-.015-.192-4.435-.199a.347.347 0 0 1-.252-.127.412.412 0 0 1-.095-.284l.021-.564a.38.38 0 0 1 .376-.378l4.437.196a.353.353 0 0 1 .25.128c.066.08.1.179.097.284l-.021.564zm-.312-1.356l-4.465-.2c-.384 0-.697.328-.713.746l-.02.565a.818.818 0 0 0 .187.559c.045.051.102.087.157.123l-.091-.006c2.422 1.497 5.157.281 5.157.281h-.024a.769.769 0 0 0 .474-.694l.021-.567a.81.81 0 0 0-.188-.557.68.68 0 0 0-.495-.25z"/>
            <path fill="#E3F0F5" d="M107.484 76.771s-2.288.073-5.315 7.22l49.647 1.934s-10.299-8.113-14.359-9.08c-4.06-.967-13.51-2.084-29.973-.074"/>
            <path fill="#DAE8E6" d="M107.323 77.32a.34.34 0 0 1 .112-.028c-.037 0-.074.014-.112.027m.125-.04"/>
            <path fill="#3D89BA" d="M102.438 83.772c2.786-6.391 4.87-6.641 4.909-6.644 6.081-.744 11.72-1.12 16.759-1.12 7.07 0 11.249.745 13.11 1.189 3.33.793 11.09 6.6 13.51 8.454l-48.288-1.88zm34.914-7.154c-1.886-.45-6.115-1.204-13.246-1.204-5.062 0-10.725.378-16.804 1.122-.254.007-2.564.285-5.578 7.398a.3.3 0 0 0 .26.416l49.647 1.934h.012a.295.295 0 0 0 .277-.196.301.301 0 0 0-.096-.337c-.422-.333-10.396-8.162-14.472-9.133z"/>
            <path fill="#3D89BA" d="M146.446 85.772l4.872.075-4.503-3.348-.37 3.273M145.48 85.756l.467-2.086s-.542-.892-1.821-1.09c-1.28-.2-2.658-.1-2.806 1.09-.147 1.193.296 2.185.936 2.185.64 0 .885.198.885.198l1.083 2.182s2.904 1.24 2.658-.396l-1.403-2.083M117.394 75.874l-1.403 8.632 4.38.274-.172-9.13-2.805.224"/>
            <path fill="#82939C" d="M173.41 76.805l-.023-.038.023.038 1.192-.447.347.348-.347-.348-1.192.447"/>
        </g>
        <path fill="#E2EFF4" d="M190.124 60.433H66.168v-2.631a3.654 3.654 0 0 1 3.654-3.655h116.575a3.727 3.727 0 0 1 3.727 3.728v2.558z"/>
        <path fill="#B0D1E4" d="M71.138 57.144a.95.95 0 1 1-1.9 0 .95.95 0 0 1 1.9 0M74.062 57.144a.95.95 0 1 1-1.9 0 .95.95 0 0 1 1.9 0M76.985 57.144a.95.95 0 1 1-1.9 0 .95.95 0 0 1 1.9 0"/>
        <path fill="#5D8BB2" d="M44.827 152.628c0 3.506-6.675 6.348-14.91 6.348s-14.91-2.842-14.91-6.348 6.675-6.348 14.91-6.348 14.91 2.842 14.91 6.348" opacity=".5"/>
        <path fill="#276B9D" d="M43.384 125.217c0 2.262-6.177 4.096-13.797 4.096-7.62 0-14.23-1.618-14.23-3.88 0-2.262 6.61-4.312 14.23-4.312s13.797 1.834 13.797 4.096"/>
        <path fill="#5D8BB2" d="M27.43 133.194c2.588-8.624-1.034-21.19-2.358-25.186-1.72-5.196-1.46-10.817-2.361-16.215-1.05-6.295-3.664-12.205-6.254-18.037-1.849 9.702.45 19.653 2.55 29.304 2.101 9.65 1.525 18.923 4.543 29.271"/>
        <path fill="#5D8BB2" d="M33.392 130.74c3.252-3.362 3.937-8.446 3.739-13.12-.199-4.673-1.104-9.377-.352-13.993.565-3.464 2.04-6.708 2.953-10.096 1.436-5.331 1.464-10.926 1.481-16.448a74.376 74.376 0 0 0-5.66 11.5c-1.576 4.054-2.793 8.238-4.008 12.415-.808 2.774-1.619 5.573-1.825 8.454-.28 3.916.568 7.815.857 11.73.288 3.916-.074 8.121-2.427 11.264"/>
        <path fill="#5D8BB2" d="M30.018 99.131c0-13.366-4.312-28.888-8.689-36.29-1.095 6.812 3.515 19.474 3.358 35.098-.13 12.943 3.985 26.335 3.878 36.712 4.088-11.377 1.453-23.416 1.453-35.52"/>
        <path fill="#E2EFF4" d="M41.228 77.573c-1.287 4.122-2.448 8.278-3.544 12.452l-3.26 12.536c-.288 1.044-.58 2.073-.79 3.124a33.075 33.075 0 0 0-.48 3.182c-.226 2.137-.252 4.292-.259 6.447-.004 2.156.05 4.318-.043 6.48-.107 2.156-.354 4.339-1.11 6.37.662-2.061.863-4.227.9-6.376.048-2.154-.041-4.31-.078-6.471-.045-2.16-.008-4.33.2-6.49.106-1.08.257-2.156.467-3.222.206-1.068.497-2.12.777-3.157 1.142-4.16 2.19-8.35 3.357-12.51 1.164-4.159 2.407-8.3 3.863-12.365M16.436 74.339c.269 2.253.636 4.492 1.057 6.72.41 2.23.86 4.453 1.324 6.673.927 4.441 1.864 8.883 2.657 13.357.394 2.237.694 4.494 1.016 6.735.322 2.244.691 4.482 1.042 6.723.69 4.482 1.534 8.95 1.958 13.473-.286-2.251-.688-4.484-1.093-6.716l-1.198-6.7c-.399-2.235-.756-4.477-1.1-6.722-.334-2.248-.653-4.488-1.047-6.72-.755-4.47-1.701-8.908-2.554-13.366-.845-4.457-1.69-8.93-2.062-13.457M21.502 63.236c1.276 5.35 2.576 10.682 3.765 16.059.554 2.699.944 5.424 1.286 8.155.337 2.73.605 5.47.784 8.218.156 2.745.228 5.514.052 8.26-.06 1.361-.007 2.733.075 4.1.078 1.368.201 2.736.322 4.103.251 2.734.57 5.464.848 8.199.262 2.735.526 5.479.521 8.229-.065-2.749-.4-5.48-.73-8.206-.322-2.728-.677-5.454-.97-8.19-.143-1.367-.283-2.736-.363-4.112-.089-1.374-.15-2.754-.095-4.139.163-2.743.077-5.478-.09-8.218a142.9 142.9 0 0 0-.743-8.197c-.321-2.726-.72-5.443-1.221-8.139l-3.441-16.122z"/>
        <path fill="#5D8BB2" d="M41.816 96.628c-1.558 7.839-4.502 13.241-6.42 19.968-1.029 3.609-1.955 8.198-.905 11.8l2.143-.584c.259-4.172 2.73-7.826 4.32-11.692 2.526-6.136 2.837-13.157.862-19.492M20.768 115.688c-2.057-4.294-4.132-8.984-3.201-13.653-1.68 2.324-2.183 5.344-1.908 8.199.276 2.855 1.268 5.589 2.355 8.243 1.467 3.584 3.154 7.474 2.071 11.192l4.104-.357c.783-4.697-1.364-9.33-3.421-13.624"/>
        <path fill="#E2EFF4" d="M41.821 96.867c.362 1.406.463 2.876.39 4.33-.097 1.457-.366 2.897-.734 4.307-.754 2.82-1.925 5.498-3.084 8.15-.588 1.323-1.162 2.65-1.649 4.006a24.784 24.784 0 0 0-1.11 4.163 21.634 21.634 0 0 0-.301 4.304c.02 1.444.215 2.882.512 4.301a20.925 20.925 0 0 1-.539-8.656c.409-2.907 1.54-5.64 2.693-8.291 1.195-2.641 2.346-5.296 3.161-8.065.802-2.758 1.22-5.687.661-8.549M17.406 102.15c-.906 2.273-.896 4.773-.456 7.13.23 1.183.506 2.362.892 3.503.38 1.145.841 2.264 1.315 3.381.916 2.24 1.943 4.481 2.442 6.89.252 1.199.4 2.415.471 3.633.052 1.219.045 2.437-.03 3.65-.035-2.428-.192-4.863-.767-7.209-.554-2.35-1.561-4.561-2.514-6.798-.464-1.124-.917-2.259-1.291-3.425a23.068 23.068 0 0 1-.85-3.569c-.184-1.21-.257-2.442-.159-3.665.063-.61.167-1.215.318-1.807.157-.591.37-1.164.629-1.715"/>
        <path fill="#E2EFF4" d="M39.935 152.596S36.7 155.83 29.37 155.83s-9.702-3.234-9.702-3.234l-4.311-27.595s4.311 3.45 14.66 3.45c8.192 0 13.366-3.45 13.366-3.45l-3.45 27.595z"/>
        <path fill="#5D8BB2" d="M236.027 153.96c0 2.269-5.064 4.108-11.31 4.108-6.248 0-11.312-1.84-11.312-4.109s5.064-4.108 11.311-4.108 11.311 1.84 11.311 4.108" opacity=".5"/>
        <path fill="#E2EFF4" d="M224.353 132.563c-.394 0-.782-.007-1.166-.017-.127-.003-.252-.01-.378-.014a41.598 41.598 0 0 1-1.854-.106 35.332 35.332 0 0 1-1.052-.1l-.463-.052c-.183-.023-.36-.048-.539-.073-.155-.022-.312-.042-.463-.065-.09-.014-.173-.03-.262-.044a27.375 27.375 0 0 1-1.188-.223c-.084-.018-.17-.034-.253-.053a20.21 20.21 0 0 1-.573-.138l-.213-.054a16.83 16.83 0 0 1-.557-.158l-.146-.045a13.274 13.274 0 0 1-.59-.197c-1.008-.366-1.754-.79-2.171-1.251 0 11.658 4.144 23.482 4.352 23.585 7.353 3.677 15.196.49 15.196.49s4.411-12.58 4.194-24.082c-1.333 1.49-6.136 2.597-11.874 2.597"/>
        <path fill="#276B9D" d="M236.316 129.281c0 1.895-5.195 3.282-11.963 3.282-6.768 0-11.864-1.022-11.864-2.917 0-1.895 5.096-3.946 11.864-3.946 6.768 0 11.963 1.686 11.963 3.581"/>
        <path fill="#E2EFF4" d="M233.31 148.47a9.315 9.315 0 0 1-2.462-.335l.49-1.734c.816.228 3.636.829 5.647-1.127 2.091-2.036 2.469-5.982 1.935-8.787-.332-1.746-.909-2.507-1.136-2.602-.015-.01-1.118-.283-4.375 4.915l-1.528-.956c2.918-4.658 4.894-6.332 6.6-5.623 1.383.58 1.978 2.711 2.21 3.929.642 3.373.133 7.902-2.449 10.416-1.556 1.516-3.427 1.904-4.932 1.904"/>
        <path fill="#5D8BB2" d="M234.853 106.292c-1.188-1.08-2.651-2.15-2.846-3.744-.238-1.951 1.59-3.817 1.06-5.71-.625-2.242-4.077-2.805-4.532-5.087-.237-1.186.466-2.331.76-3.505.58-2.313-.636-4.95-2.773-6.01.332 2.016-.968 3.893-2.121 5.578-1.154 1.686-2.266 3.763-1.55 5.676.535 1.424 2.04 2.589 1.8 4.092-.344 2.165-3.774 2.342-4.666 4.345-1.127 2.528 2.696 5.016 2.13 7.726-.31 1.489-1.827 2.377-2.625 3.673-1.031 1.674-.732 3.905.237 5.616.969 1.712 2.974 2.796 4.259 3.029 1.583.287 3.282-.086 4.712-.822 1.432-.736 2.536-2.375 2.117-3.928-.265-.985-1.093-1.834-1.012-2.85.105-1.343 1.664-2.014 2.99-2.25 1.325-.234 2.88-.455 3.537-1.63.784-1.402-.289-3.12-1.477-4.2"/>
        <path fill="#5497C2" d="M46.27 179.17l5.69-11.277h21.762l-5.69 11.276H46.27zm33.243-22.751l-4.905 9.72H52.846l4.905-9.72h21.762zm5.544-10.988l-4.66 9.234H58.637l4.66-9.234h21.761zm8.788-17.415l-7.902 15.66H64.18l7.504-14.87-1.566-.79-31.895 63.207 1.566.79 5.597-11.09h21.761l-5.197 10.3 1.566.79 31.895-63.206-1.566-.79z"/>
        <path fill="#12406D" d="M176.861 45.838s.63-.374.936-.357c.446.025 1.265.626 1.618.8.812.399 2.459.77 3.266 1.179 1.14.578 1.291 2.001 1.291 2.001l-2.688-1.344-3.402-1.599-1.02-.68z"/>
        <path fill="#215C8B" d="M174.442 47.573c.016.122.109.428.46.787.49.5 1.26.493 1.457.616.642.404 2.044 1.35 5.158 2.204.344.094 1.999.255 2.425-1.043.41-1.25-.913-2.077-2.397-2.556-1.422-.46-1.782-.432-2.728-.926-.424-.223-.97-.84-1.224-.851-.234-.01-1.087-.07-1.225.204"/>
        <path fill="#3D81B1" d="M175.873 46.971c1.827.373 3.614.936 5.324 1.678.473.205 1.02.558.956 1.07-.042.34-.369.588-.706.65-.337.061-.682-.025-1.011-.118-1.784-.507-3.487-1.258-5.183-2.006"/>
        <path fill="#E2EFF4" d="M177.351 47.358l-.554 1.305.644-.568-.09-.737zm.234.792l.124 1.022.55-.697-.164-.774-.51.45zm.821.36l.196.916.424-.599-.197-.851-.423.533zm.766.346l.222.96.45-.621-.26-.922-.412.583zm.82.365l.222.79.583-.54-.282-.974-.523.724zm.96.293l.205.705.399-1.265-.605.56zm.202 1.008a.068.068 0 0 1-.066-.049l-.248-.856-.615.57a.068.068 0 0 1-.112-.032l-.223-.793-.473.656a.068.068 0 0 1-.069.026.068.068 0 0 1-.052-.051l-.23-.988-.442.626a.069.069 0 0 1-.07.028.068.068 0 0 1-.052-.053l-.205-.958-.583.737a.068.068 0 0 1-.12-.034l-.133-1.092-.799.703a.067.067 0 0 1-.084.005.068.068 0 0 1-.023-.082l.77-1.815a.07.07 0 0 1 .073-.04c.03.004.054.028.058.059l.109.897.527-.464a.068.068 0 0 1 .112.037l.165.778.44-.556a.068.068 0 1 1 .12.027l.202.87.425-.6a.068.068 0 1 1 .121.021l.268.955.541-.75a.066.066 0 0 1 .067-.027.068.068 0 0 1 .054.048l.302 1.042.743-.687a.067.067 0 0 1 .083-.007.068.068 0 0 1 .028.078l-.544 1.724a.07.07 0 0 1-.065.047z"/>
        <path fill="#FEDFB2" d="M163.357 27.227c-.17 1.425-.877 6.262-.25 7.79.418 1.019 1.158 1.941 1.949 2.729.536-.217 1.552-3.734 2.088-3.951.334-1.892.142-4.126-.055-6.149-1.102-.19-2.63-.23-3.732-.42M182.996 27.084c.194 1.499.763 6.678-.023 8.137-.525.971-1.883 2.308-2.754 3.014-.51-.27-.35-4.528-.861-4.797-.483-2-.594-4.248.01-6.076 1.116-.081 2.512-.197 3.628-.278"/>
        <path fill="#3D81B1" d="M178.737 38.031h-11.564l-.029-11.444 12.251-.244z"/>
        <path fill="#215C8B" d="M163.108 38.091c2.115.423 5.328.908 9.254.853 6.099-.088 9.318-1.416 9.669-.353.395 1.2-3.056 4.897-7.081 5.702-1.72.343-3.938-.447-8.375-2.028-1.284-.458-2.856-1.087-3.345-2.675a3.716 3.716 0 0 1-.122-1.499"/>
        <path fill="#3D81B1" d="M163.106 27.442c-.056-.487.35-2.812 1.18-3.928.976-.68 2.642-.982 4.468-1.356 2.369-.485 4.647-.551 5.617-.47 3.564.3 6.376 1.353 7.624 2.202.776.96 1.187 2.445 1.275 3.39.135 1.434-20.061 1.053-20.164.162"/>
        <path fill="#5D8BB2" d="M164.87 38.367a.95.95 0 0 0 .935.873l14.594-.04a.936.936 0 0 0 .92-.878l.42-8.135a.852.852 0 0 0-.856-.875l-15.737.04a.837.837 0 0 0-.838.878l.562 8.137z"/>
        <path fill="#FEDFB2" d="M175.593 19.722c-.19 1.115-.213 2.214.283 3.388-1.18.079-3.92.126-5.099.204.036-1.086.57-2.506-.032-3.798 1.675.118 3.173.088 4.848.206"/>
        <path fill="#FEE6C2" d="M177.217 16.455c0 2.532-1.756 4.585-3.922 4.585-2.166 0-3.922-2.053-3.922-4.585s.785-4.585 3.922-4.585c3.217 0 3.922 2.053 3.922 4.585"/>
        <path fill="#FEDFB2" d="M174.323 21.688c-.856-.074-2.796-.138-4.843.33.018 1.295 1.686 2.341 3.742 2.341 1.991 0 3.637-1.034 3.754-2.272-.806-.207-1.706-.316-2.653-.399"/>
        <path fill="#E2EFF4" d="M174.105 33.907a1.065 1.065 0 1 1-2.13 0 1.065 1.065 0 0 1 2.13 0"/>
        <path fill="#215C8B" d="M169.152 40.937c-1.096-.964-2.779-2.331-4.98-3.469-1.615-.834-2.688-1.193-3.98-1.02-.815.341-2.082 1.897-2.11 2.96-.053 1.996 3.082 4.613 5.867 5.759 4.044 1.663 10.36 4.052 11.11 3.87.973-.237 1.838-3.063 1.838-3.063-3.415-2.18-6.053-3.549-7.745-5.037"/>
        <path fill="#FEE6C2" d="M170.046 16.398c.17.462.03.94-.312 1.065-.342.126-.758-.147-.927-.61-.17-.462-.03-.94.311-1.065.343-.126.758.147.928.61M176.588 16.398c-.17.462-.03.94.312 1.065.342.126.758-.147.928-.61.17-.462.03-.94-.312-1.065-.343-.126-.758.147-.928.61"/>
        <path fill="#12406D" d="M169.327 45.838s-.766-.573-1.072-.556c-.446.025-1.054.78-1.406.953-.812.4-2.505.77-3.312 1.18-1.14.578-1.321 2.046-1.321 2.046l2.688-1.344 3.402-1.599 1.02-.68z"/>
        <path fill="#215C8B" d="M171.747 47.573c-.017.122-.11.428-.461.787-.49.5-1.26.493-1.457.616-.642.404-2.044 1.35-5.158 2.204-.344.094-1.999.255-2.425-1.043-.41-1.25.913-2.077 2.396-2.556 1.424-.46 1.783-.432 2.728-.926.425-.223.97-.84 1.225-.851.234-.01 1.086-.07 1.225.204"/>
        <path fill="#3D81B1" d="M170.315 46.971a26.946 26.946 0 0 0-5.324 1.678c-.473.205-1.02.558-.957 1.07.043.34.37.588.707.65.337.061.682-.025 1.011-.118 1.784-.507 3.487-1.258 5.183-2.006"/>
        <path fill="#E2EFF4" d="M168.747 48.095l.644.567-.554-1.304-.09.737zm-.82.38l.552.697.124-1.022-.51-.449-.165.774zm-.765.352l.424.599.195-.917-.421-.533-.198.851zm-.817.368l.449.621.222-.96-.412-.583-.26.922zm-.954.276l.583.54.222-.79-.523-.724-.282.974zm-.759-.517l.4 1.265.204-.705-.604-.56zm.402 1.568a.068.068 0 0 1-.065-.048l-.544-1.724a.068.068 0 0 1 .111-.07l.743.687.302-1.042a.068.068 0 0 1 .054-.048.067.067 0 0 1 .067.028l.541.749.268-.955a.068.068 0 0 1 .121-.021l.425.6.202-.87a.069.069 0 0 1 .051-.052.069.069 0 0 1 .069.024l.44.557.166-.778a.067.067 0 0 1 .045-.05.066.066 0 0 1 .066.013l.527.464.109-.897a.068.068 0 0 1 .058-.06.07.07 0 0 1 .072.041l.771 1.815a.067.067 0 0 1-.022.082.067.067 0 0 1-.085-.005l-.799-.703-.132 1.092a.068.068 0 0 1-.121.034l-.583-.737-.205.958a.068.068 0 0 1-.052.053.069.069 0 0 1-.07-.028l-.443-.626-.229.988a.068.068 0 0 1-.122.025l-.472-.656-.223.793a.068.068 0 0 1-.111.031l-.616-.569-.249.856a.068.068 0 0 1-.064.049z"/>
        <path fill="#215C8B" d="M186.05 36.481c-1.362-.34-2.182-.15-3.811.613-2.11.987-4.15 2.518-5.58 3.708-1.731 1.443-3.913 3.097-7.621 4.73 0 0 .53 3.858 1.633 3.674 1.712-.285 7.363-2.376 11.407-4.039 2.785-1.146 5.997-3.865 5.945-5.861-.028-1.063-1.16-2.483-1.974-2.825M175.06 11.083c-1.548-.634-3.233-.391-4.44.612-1.786 1.484-1.367 4.032-1.367 4.032.397-.028.544.586.47 1.004-.038.224.59.533.606.356.092-.969.035-3.674 2.614-3.383.418.09.82.317 1.169.576.524.388 1 .858 1.597 1.12.195.084.411.14.628.16.246.806.186 1.562.186 1.562s.546-.173.578-.34c.034-.172 1.446-4.27-2.041-5.7"/>
        <path fill="#FEDFB2" d="M96.482 28.349c-.143 1.252-.851 5.633-.322 6.976.353.895.978 1.706 1.646 2.397.453-.19 1.765-3.35 2.218-3.542l-.5-5.33c-.93-.168-2.112-.334-3.042-.501M112.848 28.387c.164 1.317.757 5.836.092 7.117-.442.854-1.59 2.028-2.325 2.648-.432-.236-1.332-4.064-1.764-4.301l1.045-5.251c.942-.071 2.01-.142 2.952-.213"/>
        <path fill="#B0D1E4" d="M109.362 37.973h-9.767s-1.233-8.19.537-10.054c1.909-2.011 7.713-1.91 9.087-.215 1.618 1.997.143 10.269.143 10.269"/>
        <path fill="#215C8B" d="M95.391 38.588c1.949.39 4.91.838 8.528.786 5.622-.08 8.589-1.304 8.912-.325.365 1.107-2.817 4.514-6.526 5.255-1.585.317-3.63-.412-7.719-1.869-1.183-.422-2.632-1.001-3.082-2.465a3.434 3.434 0 0 1-.113-1.382"/>
        <path fill="#B0D1E4" d="M96.41 28.67c-.047-.428.235-2.166.935-3.146.825-.598 1.708-.978 3.585-1.496 1.972-.544 3.925-.484 4.745-.413 3.01.263 5.134 1.188 6.189 1.935.655.844 1.002 2.148 1.076 2.977.114 1.26-16.443.926-16.53.144"/>
        <path fill="#E2EFF4" d="M97.01 38.774a.95.95 0 0 0 .936.873l13.313-.036a.936.936 0 0 0 .92-.879l.381-7.36a.852.852 0 0 0-.856-.874l-14.366.036a.837.837 0 0 0-.839.878l.511 7.362z"/>
        <path fill="#327CAE" d="M100.743 24.173h7.48v-5.785h-7.48z"/>
        <path fill="#FEDFB2" d="M106.551 21.888c-.137.98-.49 2.114-.129 3.146-.859.069-2.08-.146-2.94-.077.026-.955-.025-2.115-.463-3.25 1.22.103 2.312.078 3.532.18"/>
        <path fill="#FEE6C2" d="M107.935 19.175c0 2.224-1.416 4.028-3.163 4.028-1.747 0-3.163-1.804-3.163-4.028 0-2.225 1.416-4.029 3.163-4.029 1.747 0 3.163 1.804 3.163 4.029"/>
        <path fill="#FEDFB2" d="M105.675 23.615c-.752-.065-2.456-.12-4.255.29.016 1.138 1.482 2.057 3.288 2.057 1.749 0 3.179-.862 3.281-1.95a14.302 14.302 0 0 0-2.314-.397"/>
        <path fill="#3D81B1" d="M105.625 15.368c-.083.488-.277.957-.75 1.44-1.173 1.195-2.189 1.397-2.862 2.243-.588.738-.561 2.927.94 6.135-1.346.767-2.569-.043-2.873-.258-1.197-.847-.874-5.021-.001-7.553.52-1.513 1.125-3.267 2.862-4.049.18-.08 1.824-.791 3.378-.051 1.542.734 2.136 2.446 2.787 4.856.397 1.468.811 5.213.35 6.153-.53 1.082-1.78 1.167-2.672.93 1.383-1.336 1.272-5.434 1.106-6.641-.112-.82-.552-2.45-2.265-3.205"/>
        <path fill="#5D8BB2" d="M105.526 34.732a.981.981 0 1 1-1.963 0 .981.981 0 0 1 1.963 0"/>
        <path fill="#FEDFB2" d="M104.83 46.674c.005.112.065.395.356.747.405.49 1.102.542 1.27.669.55.415 1.704 1.19 4.456 2.202.304.111 1.83.57 2.315-.572.467-1.1-.667-1.949-1.972-2.496-1.252-.524-1.902-.4-2.719-.92-.367-.234-.624-.644-.854-.674-.21-.028-.448.002-.594.24"/>
        <path fill="#3D81B1" d="M101.014 41.253c-.995-.875-2.469-2.238-4.555-3.077-1.515-.61-2.672-.787-3.817-.716-.74.31-1.501 1.206-1.526 2.17-.048 1.813 2.647 4.423 5.176 5.463 3.67 1.51 9.478 3.266 10.16 3.1.883-.214 1.48-2.003 1.48-2.003-3.101-1.98-5.381-3.587-6.918-4.937"/>
        <path fill="#FEDFB2" d="M103.37 47.277c-.015.11-.1.388-.418.714-.445.454-1.145.447-1.323.56-.582.367-1.798 1.043-4.624 1.819-.313.085-1.873.413-2.26-.765-.372-1.136.829-1.886 2.176-2.32 1.292-.418 1.928-.24 2.786-.69.386-.201.677-.588.908-.598.212-.01.446.04.572.289"/>
        <path fill="#3D81B1" d="M116.398 37.46c-1.145-.072-2.301.106-3.816.716-2.087.84-3.561 2.201-4.556 3.076-1.537 1.351-3.491 3.126-6.798 5.057 0 0 .24 2.242 1.241 2.075 1.554-.259 6.609-1.782 10.28-3.292 2.529-1.04 5.223-3.649 5.176-5.461-.026-.965-.788-1.86-1.527-2.17"/>
        <path fill="#215C8B" d="M97.005 50.37c.252-.07.492-.139.72-.206a2.114 2.114 0 0 1-.98-1.78c0-.425.128-.82.345-1.152l-.17.052c-1.346.435-2.547 1.185-2.175 2.32.387 1.18 1.947.851 2.26.765M112.091 47.655a37.772 37.772 0 0 0-.664-.346c.168.68 0 1.424-.513 1.966a2.093 2.093 0 0 1-1.043.598c.052.026.103.053.159.08 1.277.61 2.665.892 3.175-.189.53-1.121-.827-1.956-1.114-2.109"/>
        <path fill="#5D8BB2" d="M128.545 8.186a7.893 7.893 0 1 1-15.787 0 7.893 7.893 0 0 1 15.787 0"/>
        <path fill="#E2EFF4" d="M120.358 3.367a54.105 54.105 0 0 1-.82 3.139c-.148.52-.31 1.034-.465 1.55l-.491 1.542-.522-.472c.376-.191.759-.365 1.138-.549.38-.18.759-.366 1.142-.54l1.149-.525c.382-.177.768-.346 1.155-.513l.919-.397-.424.883c-.217.452-.427.907-.654 1.355-.225.448-.443.9-.678 1.344a54.17 54.17 0 0 1-1.449 2.646c.149-.483.31-.96.476-1.434.166-.475.339-.946.517-1.415.172-.472.361-.936.544-1.404.18-.468.376-.929.566-1.392l.496.486c-.376.189-.753.377-1.135.556l-1.14.544c-.38.18-.765.351-1.148.527-.384.173-.764.354-1.151.52l-.838.356.316-.828.577-1.512c.202-.5.396-1.003.604-1.501.413-.998.842-1.99 1.316-2.966"/>
        <path fill="#5D8BB2" d="M114.33 12.444l-1.37 3.588 4.566-1.762"/>
        <path fill="#FEDFB2" d="M120.038 119.64c.61-1.658 1.403-3.11 2.146-4.862.476-1.123 1.14-2.565 1.627-3.621.134-1.125-.51-1.785-.366-3.01.214-1.83.8-2.645 1.37-2.944.25.91-.733 3.296.4 3.416.296.031.65-1.682.84-1.62.497.162-.79 3.096-.955 4.254-.099.693-.561 2.376-.924 4.323-.77 4.125-.493 5.128-1.506 5.453-.421.135-1.208.084-2.632-1.389"/>
        <path fill="#CCE2EE" d="M127.674 108.835c-.094.262.251.637.786.829.535.192 1.022.234 1.116-.028.094-.262-.203-.526-.739-.718-.535-.192-1.07-.344-1.163-.083"/>
        <path fill="#3D81B1" d="M116.393 180.82c-1.465 3.187-1.086 4.674-1.086 4.674s1.559 1.114 4.395 1.302c3.24.215 4.15-.488 4.15-.488s.292-1.15-.841-1.465c-1.655-.461-3.777-.794-4.113-1.028-.45-.313-.098-1.107.62-3.053l-3.125.058"/>
        <path fill="#FEE6C2" d="M116.393 180.82c-.517 1.126-.802 2.035-.957 2.746.58.325 1.282.517 2.041.517.64 0 .871-.041 1.39-.278-.256-.468.05-1.414.65-3.043l-3.124.058"/>
        <path fill="#12406D" d="M115.28 185.9c-.122-.067.014-.8.014-.8s1.397.977 4.855 1.289c1.036.093 3.703-.136 3.703-.136s.068.448-.136.543c-.266.124-1.329.345-3.689.271-2.604-.081-4.225-.876-4.747-1.166"/>
        <path fill="#294E77" d="M121.89 151.546l-.29.405a46.641 46.641 0 0 1 1.504 14.117c-.314 6.696-2.451 13.274-3.85 16.7-.976.57-3.133.244-4.028-.204 0-2.777 2.05-11.39 2.382-13.95.314-2.423-.627-6.043-.983-7.406l5.264-9.662"/>
        <path fill="#B0D1E4" d="M125.265 111.418c-.858.165-1.65-.297-1.65-.297l-3.697 8.218.495 2.673 3.73-4.06s1.154-6.54 1.122-6.534"/>
        <path fill="#3D81B1" d="M105.244 184.992c-.488.637-.979 1.819-.475 2.8.794 1.547 4.706 1.276 3.154 3.967-.016.027-2.202.07-3.764-1.383-1.532-1.425-3.978-.584-3.933-2.418.024-.995 1.788-3.282 1.967-4.471.62.238 2.43 1.267 3.051 1.505"/>
        <path fill="#FEE6C2" d="M120.74 122.337c.164-.504.632-1.949-.172-3.297-.84-1.408-2.434-1.656-2.951-1.736-.287-.045-2.579-.401-3.47.868-1.003 1.425.507 3.836 1.561 4.946.5.527 1.846 1.943 3.21 1.562 1.171-.327 1.64-1.775 1.823-2.343"/>
        <path fill="#316491" d="M116.74 117.76c.887-1.273-.863-2.697-.863-2.697s-.794.829-1.878 1.254c-1.441.565-2.67 2.317-2.782 3.854-.135 1.863.73 3.77 2.305 4.61 1.192.635 2.928.446 3.413.413.321-.3.47-.854.5-1.533.052-1.198-1.283-1.724-1.562-3.066-.12-.578-.086-1.501.867-2.835"/>
        <path fill="#FEE6C2" d="M102.193 183.486c-.107.71-.778 1.811-1.307 2.795.752.75 1.88 1.227 3.14 1.227.21 0 .414-.018.615-.043-.267-.906.168-1.905.603-2.473-.62-.239-2.43-1.267-3.05-1.506"/>
        <path fill="#316491" d="M114.08 146.918c-.415 1.226-1.274 1.795-1.968 4.223-1.388 4.86-1.078 9.904-2.603 13.943-1.439 3.81-2.172 3.737-4.513 8.678-2.046 4.32-3.652 8.942-4.31 11.325 1.277.911 3.035 1.617 4.72 1.628 3.31-7.061 7.011-13.316 9.31-17.06 2.451-3.996 4.571-7.047 6.306-11.976a42.567 42.567 0 0 0 2.256-10.645c-2.931-.058-6.268-.058-9.199-.116"/>
        <path fill="#FEE6C2" d="M116.716 121.827c-.14-.216-.48-.243-.68-.081-.2.162-.256.46-.173.704.084.244.286.433.514.551.245.126.533.18.801.116a.853.853 0 0 0 .604-.515"/>
        <path fill="#12406D" d="M100.233 187.732s-.362 1.01-.163 1.322c.142.224 1.994 1.302 3.6 1.973.956.4 3.683 1.221 3.988 1.12.185-.062.427-.652.427-.652s-3.172-.977-4.17-1.424c-2.543-1.14-3.682-2.34-3.682-2.34"/>
        <path fill="#FEE6C2" d="M123.968 123.813c2.729-3.455 2.648-4 3.395-5.992.837-2.23 1.553-6.172 1.904-7.737.183-.822.19-1.045.454-1.384.288-.245 1.174-1.526 1.505-2.254.265-.584.85-2.548.053-2.946-1.054-.528-1.786 1.344-2.084 2.535-.08.318-1.035.597-1.035.597s-.032 1.437-.08 1.632c-.529 2.136-1.513 3.345-3.623 8.402-.748 1.792-1.55 1.353-3.034 4.14l2.545 3.007"/>
        <path fill="#B0D1E4" d="M127.674 108.81c.198.727 1.32 1.024 1.914.826-.252.48-.938 5.81-2.541 9.57-1.422 3.336-3.834 5.978-4.232 6.306 1.444 2.124 2.12 3.63 2.746 6.437 1.493 6.704-1.483 14.438-2.441 17.405-2.524.291-4.086.204-5.887-.072-1.503-.23-3.246-.563-3.816-1.132 1.245-4.71.636-8.906.604-11.356-.043-3.38-.178-6.202-.231-8.216-.022-.842.506-2.26 1.409-3.302.908-1.05 1.604-.953 2.699-1.5.613-.305 3.448-3.15 5.849-6.352.792-1.056 3.81-7.811 3.927-8.613"/>
        <path fill="#91C0DA" d="M124.095 134.21c-.063-2.825-.792-6.489-1.311-8.662l.097.062c1.397 2.072 2.064 3.575 2.68 6.339 1.493 6.704-1.516 14.521-2.474 17.488-1.179.136-1.51.155-2.517.124 1.644-3.821 3.671-8.807 3.525-15.351"/>
        <path fill="#CCE2EE" d="M127.32 109.852c.32.274 1.008.716 2.057.623l-.031.153c-.085.006-.169.01-.25.01-.896 0-1.51-.376-1.832-.642l.057-.144M123.201 112.04c.37.233 1.02.505 1.907.368l-.026.155c-.06.008-.121.017-.18.022a2.859 2.859 0 0 1-1.762-.41l.061-.135z"/>
        <path fill="#FECA81" d="M113.219 148.62s3.713 2.253 9.653 1.93c.035-.001.283-1.236.248-1.237-5.792-.074-9.48-2.054-9.48-2.054l-.421 1.361z"/>
        <path fill="#B0D1E4" d="M66.168 75.489H78.74V60.433H66.17z"/>
        <path fill="#B0D1E4" d="M78.447 69.642H90.14v-9.21H78.447z"/>
        <path stroke="#E2EFF4" stroke-width=".585" d="M85.938 71.798L96.17 90.947"/>
        <path fill="#FEE6C2" d="M85.746 90.725c.866-.47 1.35-.728 2.202-1.861.557-.74 2.201-1.958 3.493-3.091-.096-.293-.13-.765.454-1.569.34-.466.883-.912 1.206-.95.417-.05 1.114.703 1.37 1.096.496.763-1.033 2.19-1.224 2.559-.804 1.551-2.949 3.658-5.244 6.504-.853.46-2.3.942-3.438 1.542-.713.376-1.279.689-1.836.853l-.197-4.558c1.05-.033 2.175.038 3.214-.525M76.53 83.182c.646.109.605 1.973.586 3.21-.023 1.424-.5 3.142-1.532 3.684-.553.29-1.088.161-1.62-.318-2.516-2.264-.963-4.507.007-5.471.425-.422 1.842-1.225 2.56-1.105"/>
        <path fill="#316491" d="M67.329 140.704c-.063.424.307 1.001.066 1.64-.46 1.213-.189 1.654-.066 1.738 1.05.721 2.633-.038 3.945-.475 1.583-.528 4.165-1.313 4.165-1.313s.13-.34-.099-.836c-.197-.426-1.73-.186-2.764-.196-.631-.007-1.157-.021-1.673-.36-.37-.245-.298-.66-.426-.886-.853.185-2.295.502-3.148.688M78.211 141.162c.23.82-.696 2.358.165 3.18.754.722 2.131.034 3.738-.262 2.104-.386 2.763-.33 3.312-.95.49-.554.897-1.144.584-1.542-.204-.258-.908-.525-2.06-.459-1.22.07-1.607.408-2.096.217-.54-.212-.718-.798-.92-1.135-.875.339-1.848.612-2.723.95"/>
        <path fill="#FEE6C2" d="M64.277 100.596c-.11 1.115.13 2.558-.022 4.023-.132 1.266.37 2.438.678 3.323.951 2.734 1.158 3.17 1.88 4.547.54 1.03-.02 1.598.35 2.798.292.952.81 1.808 1.509 1.83.896-.59.308-1.527.312-3.75.002-.986-.216-1.61-.555-2.36-.236-.522-.987-3.582-1.18-5.514-.175-1.77.453-3.176.722-3.695-1.195-.364-2.5-.838-3.694-1.202M74.202 91.577c.132-.623-.39-1.44.726-1.866-.212-.335-.166-1.148-1.622-1.664-1.567-.556-2.907-.09-3.258.043.107.253.278.758.219 1.4-.08.86-.84 1.652-1.017 1.858 1.553.022 3.4.208 4.952.23"/>
        <path fill="#316491" d="M77.152 80.139c-1.115-1.509-3.355-1.537-4.503-1.167-2.206.71-2.9 2.862-2.9 2.862s-1.105.399-1.385 1.313c-.401 1.31.026 2.345.952 3.512.494.622.407 2.385 1.017 2.76.474.292 1.646-.056 2.443-.365.042-.45.049-1.51-.017-1.882-.078-.445.764-1.534.951-1.749.439-.504 1.104-.657 1.574-.798.984-.295 1.886-1.004 2.306-1.843.145-.29.506-1.366-.438-2.643"/>
        <path fill="#FEE6C2" d="M73.702 85.444c-.033-.249-.282-.435-.533-.44-.251-.005-.488.145-.634.35-.146.203-.211.455-.237.705-.025.241-.015.492.076.717.09.225.268.423.5.496.232.073.513-.002.648-.204"/>
        <path fill="#12406D" d="M67.125 143.754s.146.767.361.853c.328.13 2.755-.23 4.427-.722.888-.26 2.985-.918 3.41-1.213.143-.098.148-.672.148-.672s-1.836.754-3.754 1.262c-2.609.691-4.592.492-4.592.492M78.074 143.906s-.043.804.152.94c.635.437 3.27-.017 4.264-.328.93-.292 3.17-.918 3.454-1.4.151-.256.153-1.18.153-1.18s-.345 1.134-3.935 1.902c-2.864.612-4.088.066-4.088.066"/>
        <path fill="#CCE2EE" d="M66.832 100.82a16.437 16.437 0 0 1-.437-2.917c-.047-1.012-.148-1.944.024-2.941.108-.651.287-1.604.462-2.237-.188.12-.652.409-.855.569-.777.612-1.334 1.694-1.793 3.541-.126.509-.424 6.444-.137 8.547.146 1.072 2.07 6.407 2.729 7.503.219.16 2.332.067 1.997-1.023-1.17-3.8-1.782-8.6-1.023-8.478-.142-.424-.86-2.129-.967-2.563"/>
        <path fill="#316491" d="M73.736 119.15c-.552-.399-.816-.898-1.215-1.458-.472-.631-.87-1.193-1.167-1.92-.274-.735-.468-1.253-.608-2.019-.078-.443-.179-1.784-.219-2.232-.724.013-1.872-.39-2.533-.39-1.009 2.552-.753 6.023-.832 7.611-.142 2.877.63 7.474-.33 11.42-.875 3.599.535 11.913.632 12.01.44.214 2.258.145 3.744-1.167 0 0-.583-7.244.39-10.55 1.135-3.86 1.986-10.145 2.138-11.305"/>
        <path fill="#3D81B1" d="M80.903 128.93c.1-3.888.254-5.923-.557-9.216-.853-3.803-.8-6.084-1.024-8.071-2.643 0-6.015.019-8.916.073 0 1.51.351 3.378.56 4.117.73 2.582 2.755 3.477 2.755 3.477s1.476 3.285 2.241 8.396c.433 2.889.138 3.965.7 8.176.28 2.102.726 4.722 1.107 6.582.94.317 3.263-.543 3.744-1.264-.416-5.074-.681-9.489-.61-12.27"/>
        <path fill="#E2EFF4" d="M90.817 86.05c-.914.694-4.638 4.12-5.087 4.446-.536.39-6.925.762-7.593.786-.603.023-1.803.1-3.115.121-.466.008-.42-.475-.53-.931-.39.048-1.43.34-2.6.268-.78-.05-1.51-.337-1.95-.56-.145.639-1.402 1.37-2.102 1.89-.493.366-.836.569-1.151.766a25.716 25.716 0 0 0-.365 2.003 15.218 15.218 0 0 0-.124 2.991 19.345 19.345 0 0 0 .729 4.336l.015.004c.42 1.028.83 2.29 1.093 3.76.538 3.005-.58 6.03-.36 6.175.558.47 3.021.878 5.7.731 2.319-.126 5.385-.365 6.433-.73-.074-.95-.585-3.954-.804-6.944-.241-3.293-.536-5.922-.19-8.13 4.94-1.03 8.29-2.843 9.058-3.369.925-.633 4.916-5.384 5.135-6.243-.347-.53-1.461-1.127-2.192-1.37"/>
        <path fill="#CCE2EE" d="M90.122 86.621c.53.205 1.596.773 2.357 1.713-.036.068-.107.165-.146.237-.779-.993-1.88-1.59-2.377-1.776l.166-.174M73.84 91.51c.27-.065.545-.17.767-.265.09.048.204.133.306.159-.245.114-.643.228-1.022.32-.351.084-.854.126-1.385.126-.842 0-1.753-.107-2.243-.328a2.114 2.114 0 0 1-.803-.64c.057-.046.115-.094.168-.14.15.194.384.426.725.58.707.319 2.53.418 3.487.188"/>
        <path fill="#E2EFF4" d="M82.486 73.452l6.925-3.142c.79-.358 1.14-1.29.782-2.08l-.194-.427a1.571 1.571 0 0 0-2.08-.782l-6.925 3.142a1.571 1.571 0 0 0-.782 2.08l.194.427c.359.79 1.29 1.14 2.08.782"/>
        <path fill="#5D8BB2" d="M82.878 43.127l-10.085-.02.04-19.757 10.085.02z"/>
        <path fill="#E2EFF4" d="M77.448 13.96s-4.615 9.387-4.615 9.398a1.3 1.3 0 0 0 1.281 1.292 1.266 1.266 0 0 0 1.245-1.023 1.266 1.266 0 0 0 2.495-.05 1.266 1.266 0 0 0 2.494.06 1.267 1.267 0 0 0 1.24 1.028c.7.002 1.328-.578 1.33-1.278 0-.01-5.47-9.427-5.47-9.427"/>
        <path fill="#5D8BB2" d="M76.225 16.45a3.738 3.738 0 0 0 2.68.016l-1.457-2.506-1.223 2.49z"/>
        <path fill="#B0D1E4" d="M192.947 181.135l-2.855-13.694 1.516-.316 2.847 13.852s-.145.314-.702.387c-.532.07-.806-.229-.806-.229M174.47 181.074s-.413.184-.725.145c-.388-.049-.606-.266-.606-.266l1.97-13.338 1.528.256-2.167 13.203z"/>
        <path fill="#FEE6C2" d="M173.412 179.933c-.114.814.203 1.497.417 2.699.04.223.36 1.268-.283 1.883-1.182 1.127-2.054-.605-6.865.75-1.716.483-3.042-.165-3.049-.2-.248-1.319 1.028-1.681 2.18-1.931 1.469-.32 2.364-.522 3.335-1.185.834-.57.928-1.616 1.183-2.166.933.167 2.15-.017 3.082.15"/>
        <path fill="#294E77" d="M169.585 181.307c.356.227.766.445 1.632.559 1.259.164 2.045-.21 2.44-.405.23.394.778 2.048.578 2.822-.143.553-1.22 1.17-4.352 1.113-2.117-.039-3.664.477-6.258.112-.287-.862.127-1.425.427-1.693.94-.838 2.211-.493 4.02-1.425.563-.29 1.258-.821 1.513-1.083"/>
        <path fill="#3D81B1" d="M168.764 184.756c-1.545.116-3.879.566-5.228.054-.03.188.027.513.089.698 2.594.365 4.141-.15 6.258-.112 3.133.057 4.21-.56 4.353-1.113.047-.186.052-.422.028-.68-.357.497-.926.843-1.826.998-.93.16-2.29.051-3.674.155"/>
        <path fill="#B0D1E4" d="M195.647 144.177c3.71-.489 5.479.45 6.047 1.25 1.48 2.079-2.155 5.365-4.798 13.694-2.023 6.377-.648 7.408-2.499 8.697-2.665 1.858-6.17-.128-15.344.35-1.514.08-4.059.229-4.898.325-.435-.678-1.53-5.022-1.064-5.71 4.065-6 20.986-17.846 22.556-18.606"/>
        <path fill="#FEE6C2" d="M168.865 176.051c-.088.725.205 1.326.414 2.39.04.198.341 1.12-.22 1.676-1.031 1.02-1.833-.503-6.083.778-1.515.457-2.703-.096-2.71-.127-.241-1.166.885-1.51 1.904-1.75 1.299-.307 2.09-.502 2.941-1.107.731-.52.798-1.45 1.015-1.942.831.133 1.908-.05 2.74.082M187.64 133.497c-.688.448-1.569-.657-1.387.737.145 1.112-.004 3.196.197 4.345.275 1.575.65 2.292 1.037 2.595 1.024.804 3.644.11 4.598-1.733.845-1.63-.171-4.908-.284-5.127"/>
        <path fill="#FEE6C2" d="M188.02 140.84c.683.214 1.161.804 1.2 1.467.044.775-.533 1.276-.6 1.333a5.441 5.441 0 0 0 2.799 0 5.42 5.42 0 0 0 2.132-1.133c-.288-.48-.636-1.218-.666-2.133-.057-1.718 1.052-2.624.666-3.132-.432-.57-2.32-.087-3.599.866-1.208.9-1.721 2.111-1.932 2.733"/>
        <path fill="#FEDFB2" d="M183.25 150.324c-.918.536-1.717 2.735-1.848 2.8-1.427.7-3.09 2.001-5.248 3.398-.693.449-1.703-.313-3.1.05-.478.125-.72.304-.963.42-.014.053-.344.812.164 1.33.058.059.485.493 1 .35.33-.092.277-.532.325-.615.474.157 1.216.444 1.774.515 3.44.432 6.237-1.449 7.347-2.3l.55-5.948"/>
        <path fill="#316491" d="M188.156 134.282c-2.543 1.14-3.72-.92-3.613-.904.63.097 1.356-1.54 1.807-2.096 1.668-2.059 4.847-1.855 6.29-1.162 1.663.799 2.386 2.077 2.516 3.484.121 1.307-.73 3.732-1.421 3.956-.385.125-2.627.19-2.627.19s.264-4.91-2.952-3.468M168.337 159.635c-.801.092-1.903.36-2.577 1.222-1.014 1.294-.776 4.264-.6 5.02.538 2.308.544 7.035.544 10.923.977.688 2.61.83 3.633.363.333-2.577.904-5.275 1.012-6.751.308-4.204-.968-6.645 1.41-8.378 1.199-.874 1.942-1.631 1.776-2.133-.245-.742-2.816-.575-5.198-.266"/>
        <path fill="#E2EFF4" d="M170.447 161.035l-3.09-1.414-4.848-8.297 2.199-.15zM170.456 161.02l10.646-.649.25-.45-4.948-1.5-7.148.55z"/>
        <path fill="#FEE6C2" d="M191.866 136.822c.16-.655.82-1.21 1.285-1.113.494.102.704.698.733 1.066.037.451-.072 1.166-.577 1.427-.62.32-1.458-.344-1.49-.363"/>
        <path fill="#3D81B1" d="M192.098 160.471c.124.7.237 2.877-.724 4.23-.849 1.194-2.092 1.23-3.325 1.318-4.228.303-9.384-.522-12.426.48-.79-.039-1.742 1.011-1.467 2.913.689 4.773-.262 8.58-.484 10.979-1.733.755-3.926.11-3.926.11s-.214-3.762-.644-8.619c-.462-5.228-.62-7.762.602-9.583 1.097-1.636 4.716-1.723 8.1-2.128 6.328-.758 11.267-.441 14.294.3"/>
        <path fill="#E2EFF4" d="M193.947 142.227c-.48.36-1.13.837-2.399 1.1-1.574.327-2.249.107-2.84-.087-.436.35-1.34.817-2.258 1.387-.962.597-1.59 1.223-2.673 3.656-2.155 4.843-2.232 10.724-2.155 11.574 1.755.022 3.642.418 5.665 1.133 3.71 1.31 5.22.955 5.22.955s.432-4.59-.4-6.642c-.534-1.319-.426-2.549-1.015-3.142a6.033 6.033 0 0 1 2.555-.237c1.354.15 2.016.569 2.525.89.63-1.644.937-2.788 1.224-4.789.176-1.23-.096-2.523-1-3.898-.709-1.079-1.877-1.587-2.449-1.9"/>
        <path fill="#FEE6C2" d="M191.098 152.024c-.489 1.089-.26 1.895-.324 1.924-2.732 1.222-5.594 2.918-8.353 3.488-1.31.27-2.179-.899-3.368-1.014-2.36-.228-2.796.943-2.95 2.1 1.675-.864 1.953.444 2.497.602 1.378.4 2.478.392 2.822.333 1.514-.258 3.835.677 11.974-1.866 1.317-1.647 1.467-2.446 2.45-5.067-1.797-.976-3.044-.804-4.748-.5"/>
        <path fill="#B0D1E4" d="M195.705 157.315c-1.957.366-3.78.652-5.871 1.097-1.517.322-4.162.548-5.84 2.225-2.377 2.378-2.191 5.343-2.193 5.872.527.043.796-.076 1.323-.032-.058-1.317.341-3.44 1.903-5 1.013-1.014 2.378-1.335 5.065-1.936a39.624 39.624 0 0 1 5.193-.807l.42-1.42"/>
        <path fill="#B0D1E4" d="M188.995 158.54c-1.677.324-6.58 1.033-6.613 1.26-.03.207.14.461.258.547.65.478 1.85.589 2.87-.032"/>
        <path fill="#294E77" d="M165.553 177.355c.313.206.674.406 1.442.518 1.115.162 1.818-.16 2.171-.327.2.353.664 1.828.476 2.513-.134.49-1.098 1.023-3.879.931-1.878-.062-3.26.375-5.558.017-.243-.77.132-1.263.402-1.498.847-.732 1.97-.408 3.588-1.212.504-.25 1.128-.713 1.358-.942"/>
        <path fill="#3D81B1" d="M164.778 180.407c-1.373.082-3.451.451-4.642-.021-.03.166.017.455.07.62 2.298.36 3.678-.078 5.557-.016 2.78.092 3.745-.442 3.88-.931.044-.164.051-.374.034-.603-.324.436-.834.736-1.634.861-.829.13-2.035.016-3.265.09"/>
        <path fill="#B0D1E4" d="M185.102 173.814s.233.28.626.25c.525-.041.606-.348.606-.348l-.495-6.177-1.23.099.493 6.176z"/>
        <text fill="#FFF" font-family="Roboto-Black, Roboto" font-size="20" font-weight="700" letter-spacing="1">
            <tspan x="114.056" y="88.159">NO</tspan> <tspan x="100.824" y="108.159">CARS</tspan>
        </text>
    </g>
</svg>
