<svg xmlns="http://www.w3.org/2000/svg" width="25" height="25" viewBox="0 0 25 25"><defs><style>.a{fill:#fbbb00;}.b{fill:#518ef8;}.c{fill:#28b446;}.d{fill:#f14336;}</style></defs><g transform="translate(-0.001)"><path class="a" d="M5.541,146.624l-.87,3.249-3.181.067A12.522,12.522,0,0,1,1.4,138.268h0l2.832.519L5.47,141.6a7.46,7.46,0,0,0,.07,5.023Z" transform="translate(0.001 -131.517)"/><path class="b" d="M273.635,208.176a12.5,12.5,0,0,1-4.456,12.083h0l-3.567-.182-.5-3.151a7.45,7.45,0,0,0,3.205-3.8h-6.684v-4.945h12.007Z" transform="translate(-248.852 -198.011)"/><path class="c" d="M49.344,316.548h0a12.5,12.5,0,0,1-18.836-3.824l4.051-3.316a7.434,7.434,0,0,0,10.713,3.806Z" transform="translate(-29.018 -294.301)"/><path class="d" d="M47.705,2.878,43.656,6.193A7.433,7.433,0,0,0,32.7,10.085L28.625,6.751h0A12.5,12.5,0,0,1,47.705,2.878Z" transform="translate(-27.225)"/></g></svg>